# xmcd
#
# Track frame offsets:
#	150
#	12812
#	23965
#	33739
#	45574
#	57729
#	68269
#	76486
#	86824
#	99815
#	112407
#	123821
#	138478
#	151361
#	163457
#
# Disc length: 2343 seconds
#
# Revision: 1
# Processed by: cddbd v1.5.2PL0 Copyright (c) Steve Scherf et al.
# Submitted via: CDmax 2.0
#
DISCID=c809250f
DTITLE=Various Artist - Simpley Country - Kings
DYEAR=2008
DGENRE=Country
TTITLE0=Folsom Prson Blues - Johnny Cash
TTITLE1=Spend Some Time With Me - Don Williams
TTITLE2=I've Got A Tiger By The Tail - Buck Owens
TTITLE3=High Noon - Frankie Laine
TTITLE4=Your Cheatin' Heart - Hank Williams
TTITLE5=Life To Go - George Jones
TTITLE6=Waiting For A Train - Jerry Lee Lewis
TTITLE7=Lorena - Waylon Jennings
TTITLE8=Ruby, Don't Take Your Love To Twon - Kenny Rogers
TTITLE9=Crystal Chandeliers - Charley Pride
TTITLE10=Defrost Your Heart - Charlie Feathers
TTITLE11=Old Shep - Red Foley
TTITLE12=I'm Movin' On and Hank Snow and The Rainbow Ranch Boys
TTITLE13=Blue Eyes Crying In the Rain - Roy Acuff
TTITLE14=Behind Closed Doors - Charlie Rich
EXTD=
EXTT0=
EXTT1=
EXTT2=
EXTT3=
EXTT4=
EXTT5=
EXTT6=
EXTT7=
EXTT8=
EXTT9=
EXTT10=
EXTT11=
EXTT12=
EXTT13=
EXTT14=
PLAYORDER=
